<svg fill="#e67896" viewBox="0 0 198.57 32" xmlns="http://www.w3.org/2000/svg"><path d="m91.67 15.38c-4.92-3.92-11.88-5.57-11.88-9.28a9.77 9.77 0 0 0 4.91 9.9c4.19 2.53 8.52 5.3 10.67 7.47-1.24-3.69-6.23-7.7-8.28-9 4.84 1.92 8 6.64 9.34 9.18a13.32 13.32 0 0 0 -4.76-8.27z"/><path d="m69.24 9.38c3.48 2.1 7.44 2.38 10.09 3.92a25.91 25.91 0 0 1 4.83 3.56 24.58 24.58 0 0 0 -4.83-3.86c-2.68-1.64-6.75-2-10-4.18-3.63-1.68-4.24-7.54-.61-8.22s4.13 3.67 2.81 4.2c1.8-.21 1.26-5.5-3.04-4.72-4.4 1.1-3.1 7.82.75 9.3z"/><path d="m59.1 15.17c12.09-2.47 18.64-.82 18.64-.82s-8.6-3.3-12.09-5.35c0 0 .82 2.47 2.26 3.09 0 0-8.81 0-9.22-3.92-.82 2.06-1.23 3.71.41 4.75-3.69-.42-9.63-3.1-9.63-5.57a8.37 8.37 0 0 0 9.63 7.82z"/><path d="m79.47 15.53c-9.45-2.41-21 0-31 3.29l-2.47.73a7.05 7.05 0 0 1 -3.78-1.83 4.41 4.41 0 0 1 -.89-5 3.84 3.84 0 0 1 4.51-2.1 2.85 2.85 0 0 1 2.08 3.83 2.21 2.21 0 0 1 -3.3 1.1 1.93 1.93 0 0 1 -.62-2.33 1.94 1.94 0 0 0 .61 2.51 2.38 2.38 0 0 0 3.53-1.34 3.08 3.08 0 0 0 -2.44-4 4 4 0 0 0 -4.62 2.44 4.57 4.57 0 0 0 1.15 5.09 7 7 0 0 0 3.59 1.67 119.06 119.06 0 0 1 -20.77 4.41 14.29 14.29 0 0 1 -3.22-3.63c-3.44-5-.56-12.93 4.87-13.16 5.34-1.18 9.16 5.89 5.9 8.25-3.72 3.05-6.41-2.59-3.62-3.42-1.15.21-1.91 2.07-1 3.59s3.6 1.64 5.31.2c3.85-3.52-1.18-11.03-7.29-9.63-6.38.94-9 10-4.82 15.38a14.94 14.94 0 0 0 2.23 2.59c-1.17.07-2.32.11-3.42.1-8.5.37-13.19-4.57-14-6.43.5 2 5.25 7.81 14.26 8.08a47.58 47.58 0 0 0 5.65.14 19.07 19.07 0 0 0 12.84 2.51c13-2 24.15-9.33 34.46-8.65a44.94 44.94 0 0 1 14.83 2.5c3.62 1.86 6.3 3.92 8.12 4.93-1.61-3.25-7.1-9.53-16.68-11.82zm-6.69 3.92c-10.54-.75-22.1 6.66-34.78 8.15a17.66 17.66 0 0 1 -9.91-1.6 122.87 122.87 0 0 0 21.82-3.85c10.26-2.94 20.73-4.67 29.19-2.86a33.23 33.23 0 0 1 7.9 2.62 44 44 0 0 0 -14.22-2.46zm-10.78-1.82c-13.51 2.75-26.38 7.16-29.31 6.49 2.77.58 15.31-4 28.87-7 13.95-3.77 28.3 3.12 31.14 6.92-3.15-3.04-16.81-9.88-30.7-6.41z"/><path d="m78.75 23.37a6 6 0 0 1 6.4-.55 5.77 5.77 0 0 0 -6.65.48 5.2 5.2 0 0 0 -2 4.66 4.67 4.67 0 0 0 3.59 4 3.78 3.78 0 0 0 4.29-2.73 3 3 0 0 0 -2.38-3.67 2.34 2.34 0 0 0 -2.56 2.17 2 2 0 0 0 1 1.7 1.92 1.92 0 0 1 -.93-1.77 2.28 2.28 0 0 1 2.63-2 2.91 2.91 0 0 1 2.14 3.66 3.61 3.61 0 0 1 -4.28 2.37 4.51 4.51 0 0 1 -3.24-3.94 5.12 5.12 0 0 1 1.99-4.38z"/><path d="m111.48 14.42c-2 1.35-7 5.36-8.27 9 2.14-2.17 6.47-4.94 10.66-7.47a9.77 9.77 0 0 0 4.92-9.9c0 3.71-7 5.36-11.89 9.28a13.32 13.32 0 0 0 -4.76 8.22c1.39-2.49 4.5-7.21 9.34-9.13z"/><path d="m129.21 8.83c-3.22 2.14-7.29 2.54-10 4.18a24.77 24.77 0 0 0 -4.84 3.85 25.75 25.75 0 0 1 4.84-3.56c2.64-1.54 6.61-1.82 10.08-3.92 3.85-1.48 5.15-8.2.75-9.3-4.3-.78-4.84 4.51-3.08 4.73-1.31-.53-.8-4.8 2.81-4.2s3.06 6.54-.56 8.22z"/><path d="m132.92 9c-3.49 2.06-12.09 5.36-12.09 5.36s6.56-1.65 18.64.82a8.37 8.37 0 0 0 9.63-7.83c0 2.47-5.94 5.15-9.63 5.57 1.64-1 1.23-2.69.41-4.75-.41 3.92-9.22 3.92-9.22 3.92 1.44-.63 2.26-3.09 2.26-3.09z"/><path d="m178.57 24.27c-1.11 0-2.25 0-3.43-.1a14.52 14.52 0 0 0 2.23-2.59c4.15-5.35 1.56-14.44-4.82-15.38-6.09-1.4-11.12 6.11-7.29 9.67 1.71 1.44 4.35 1.45 5.32-.2s.16-3.38-1-3.59c2.79.83.11 6.47-3.62 3.42-3.26-2.36.57-9.43 5.91-8.25 5.42.23 8.3 8.14 4.86 13.16a14.29 14.29 0 0 1 -3.21 3.59 119.06 119.06 0 0 1 -20.77-4.44 6.93 6.93 0 0 0 3.59-1.67 4.57 4.57 0 0 0 1.15-5.09 4 4 0 0 0 -4.62-2.44 3.08 3.08 0 0 0 -2.44 4 2.38 2.38 0 0 0 3.57 1.37 1.92 1.92 0 0 0 .61-2.51 1.93 1.93 0 0 1 -.61 2.35 2.21 2.21 0 0 1 -3.3-1.1 2.86 2.86 0 0 1 2.08-3.83 3.86 3.86 0 0 1 4.52 2.1 4.43 4.43 0 0 1 -.9 5 7 7 0 0 1 -3.77 1.83l-2.48-.73c-10-3.33-21.56-5.7-31-3.29s-15.15 8.55-16.74 11.8c1.81-1 4.49-3.07 8.11-4.93a45 45 0 0 1 14.84-2.5c10.3-.68 21.47 6.68 34.46 8.65a19 19 0 0 0 12.83-2.51 47.58 47.58 0 0 0 5.65-.14c9-.27 13.76-6 14.27-8.08-.81 1.86-5.51 6.8-14 6.43zm-41.57-7.17c13.55 3 26.09 7.6 28.86 7-2.93.67-15.8-3.74-29.31-6.49-13.87-3.45-27.55 3.39-30.65 6.39 2.83-3.78 17.19-10.67 31.1-6.9zm23.53 10.5c-12.68-1.49-24.23-8.9-34.77-8.15a44 44 0 0 0 -14.25 2.46 33 33 0 0 1 7.92-2.66c8.46-1.81 18.93-.08 29.2 2.86a122.61 122.61 0 0 0 21.85 3.89 17.64 17.64 0 0 1 -9.91 1.6z"/><path d="m120.08 23.3a5.77 5.77 0 0 0 -6.65-.48 6 6 0 0 1 6.4.55 5.14 5.14 0 0 1 2 4.38 4.53 4.53 0 0 1 -3.25 3.94 3.61 3.61 0 0 1 -4.24-2.35 2.91 2.91 0 0 1 2.14-3.66 2.29 2.29 0 0 1 2.64 2 1.94 1.94 0 0 1 -.94 1.77 1.93 1.93 0 0 0 1-1.7 2.34 2.34 0 0 0 -2.56-2.17 3 3 0 0 0 -2.44 3.65 3.78 3.78 0 0 0 4.3 2.73 4.66 4.66 0 0 0 3.58-4 5.19 5.19 0 0 0 -1.98-4.66z"/><path d="m78.22 22s-4.78 2.75-7.92 3a79.49 79.49 0 0 0 8.06-3.71 9.18 9.18 0 0 0 -7.93 1.51 30.22 30.22 0 0 1 -8.43 4.27s7.37-.14 11.19-1.65 5.03-3.42 5.03-3.42z"/><path d="m102.77 19.15a1.4 1.4 0 0 0 -2.36-.82 1.52 1.52 0 0 0 -.34.33 10.86 10.86 0 0 1 .59-1.8c.8-1.74 1.93-.8 2-.28s.15.51.37.26a2.06 2.06 0 0 0 .36-2.42 1.6 1.6 0 0 0 -2.79.31 6.6 6.6 0 0 0 -.64 1.4c0-.32.08-.59.11-.79.55-3.22-.11-3.47-.4-3.92a3 3 0 0 1 -.36-.75 3 3 0 0 1 -.36.75c-.29.44-1 .69-.42 3.92 0 .18.06.43.1.72a7.32 7.32 0 0 0 -.63-1.33 1.61 1.61 0 0 0 -2.8-.31 2.06 2.06 0 0 0 .36 2.42c.23.25.33.13.37-.26s1.18-1.46 2 .28a11.82 11.82 0 0 1 .6 1.8 1.81 1.81 0 0 0 -.35-.33 1.4 1.4 0 0 0 -2.36.82 1 1 0 0 0 .69 1c.13.05.2 0 .17-.28s.35-1.12 1.11-.7a2.78 2.78 0 0 1 1.21 1.91c0 .16.07.31.1.44.1.61.15 1 .15 1s0-.31 0-.55v.55s.06-.41.16-1q0-.2.09-.42a2.78 2.78 0 0 1 1.23-1.93c.76-.42 1.14.45 1.11.7s0 .33.17.28a1 1 0 0 0 .76-1z"/><path d="m99.29 25.28c-1-.82-1.37-3.58-1.37-3.58-.27 4.68 1.37 6.74 1.37 6.74s1.63-2.06 1.36-6.74c0 0-.41 2.76-1.36 3.58z"/><path d="m5.15 12.21a8.29 8.29 0 0 0 -3.15-2.57l-.22 1.85-1.78-.49a8.28 8.28 0 0 0 1.15 3.89 7.21 7.21 0 0 0 4.86 3 7.17 7.17 0 0 0 -.86-5.68z"/><path d="m196.78 11.49-.22-1.85a8.29 8.29 0 0 0 -3.14 2.57 7.13 7.13 0 0 0 -.85 5.63 7.21 7.21 0 0 0 4.85-3 8.15 8.15 0 0 0 1.15-3.84z"/></svg>