<svg viewBox="0 0 80 80" xmlns="http://www.w3.org/2000/svg" fill="#e67896"><path d="m72.89 56.85c2.81-1.85 8.35 2.53 4.93 8.15-3.65 6-10.07 2-10.65 1.44a9.45 9.45 0 0 0 3 1.92c3.48 1.2 8-.84 9-5.74a0 0 0 0 1 0 0 10.49 10.49 0 0 0 -2-10.2c-4-4.95-4.69-6.24-3.34-9.52s4.82-4.17 5.65-9a4.07 4.07 0 0 0 .06-.6c.46-1.28.49-4.45-.83-7.71s-7.41-8.44-8.48-14.06c-1.23-6.53 5.09-11.68 7.83-9.71a.79.79 0 0 1 -.26 1.46c.26-.42-.21-1.16-.85-.6a1.34 1.34 0 0 0 1 2.19 2 2 0 0 0 1.69-2.87c-.72-1.67-3.82-3.21-7.07-.38s-6.38 9.3 0 16.93c4.9 5.88 6.77 7.71 7.07 13.24v.71c-.3-4-4.84-6.64-7.32-4.16a2.35 2.35 0 0 0 .9 4.11c1.1.07 1.55 0 .84-.44s-2-3.15.38-3.48c4.31.33 6.11 4.57 2.06 9.65-3.13 3.93-6.36 7.13-.9 12.85 4 4.2 4.11 8.13 3.77 10.5.12-4.16-4.09-6.43-5.54-6.6s-3 1.35-2.23 1.86c-.73 1.1.26 2.23.7 2.16a1.94 1.94 0 0 1 .59-2.1z"/><path d="m73.86 43.23c.82-1.25 2.23-2.92 3.73-2.19s1.37 2 .9 2.36-1.42-.13-1.29-1.12c-.51.43-.3.47-.43.86s-.13 1.76 1 1.71a1.91 1.91 0 0 0 1.76-2.78c-.64-1.84-3.26-2.31-4.33-1.07a6.9 6.9 0 0 0 -1.34 2.23z"/><path d="m72.26 44.72c.4-2.36.55-2.07 2.24-4.71a3 3 0 0 0 -.25-3.86c-1-.88-2.83-1.32-3.56.56-.61 1.58.6 2.49 1.37 2.06s.56-1 .82-1.16-.26-.34-.69-.17-.45-.49.23-.92 2.9 1 1.61 3.11-2 3.69-2.13 5.28a6.86 6.86 0 0 0 1.62 4.4 19 19 0 0 0 1.57 1.78c-2.48-3.03-3.09-4.61-2.83-6.37z"/><path d="m74 73.06a3.29 3.29 0 0 1 .9-4.16c1.69-1.24 3.69.34 3.39 1.67s-1.16.13-.73 0c.43-.34-.3-.81-.69-.26s.33 1.51 1.2 1.29c1.37-.34 1.29-2 .3-2.87a3 3 0 0 0 -4-.21 2.86 2.86 0 0 0 -.37 4.54z"/><path d="m70.65 11.64c.32 2 2.74 6.17 4 7.63 1.56 1.77 3.89 4.84 4.15 5.87a7.7 7.7 0 0 0 -1.42-3c-.94-1.43-2.82-3.26-3.33-5.15s.42-3 .34-4.11c-.07-.27-.66.46-.83.71a8 8 0 0 0 .66-3.45c0-.39.12-.56-.22-.3-.77.68-.77 1.2-.85 1a4.38 4.38 0 0 0 -.3-4c-.18-.17-.13.56-.86 1.37s-1.63 1.65-1.34 3.43z"/><path d="m76.17 23.6a17.31 17.31 0 0 0 -3.17-3.86c-1.48-1.22-3.93-2.09-5 .39-.9 2.05 2.5 4.43 3.34 2.7.13-.26.64-.52.51-1.16-1.15 1.29-2.83-1.16-1-1.61s5.64 4.24 5.32 3.54z"/><path d="m41 77.62c-.73-1.5.94-2.92 2.18-3.73a6.9 6.9 0 0 0 -2.18 1.37c-1.24 1.07-.77 3.68 1.07 4.33a1.91 1.91 0 0 0 2.79-1.76c0-1.16-1.33-1.16-1.71-1s-.43-.08-.86.43c1-.13 1.5.81 1.11 1.28s-1.65.58-2.4-.92z"/><path d="m37.43 72.22c-.18.43 0 .94.17.68s.73 0 1.16-.81-.49-2-2.06-1.37c-1.89.72-1.44 2.59-.56 3.55a3 3 0 0 0 3.86.26c2.63-1.69 2.34-1.84 4.71-2.24 1.75-.3 3.33.34 6.36 2.82a21.59 21.59 0 0 0 -1.77-1.57 6.94 6.94 0 0 0 -4.4-1.62c-1.6.1-3.15.85-5.29 2.14s-3.53-.92-3.11-1.61 1.1-.66.93-.23z"/><path d="m68.53 74.44a3 3 0 0 0 .21 4c.91 1 2.53 1.07 2.87-.3.22-.87-.72-1.59-1.28-1.2s-.09 1.11.26.69c.08-.43 1.28.42 0 .72s-2.9-1.69-1.67-3.38a3.29 3.29 0 0 1 4.16-.9 2.86 2.86 0 0 0 -4.55.37z"/><path d="m76.93 64.7a4.52 4.52 0 0 1 -.65 1.14 4.79 4.79 0 0 1 -2.14 1.62 6 6 0 0 1 -2.75.32 9.81 9.81 0 0 1 -2.93-.85 7.33 7.33 0 0 0 2.92 1 6.06 6.06 0 0 0 2.83-.29 4.89 4.89 0 0 0 2.23-1.64 5.58 5.58 0 0 0 .7-1.17 3.52 3.52 0 0 0 .3-1.45 3.17 3.17 0 0 0 -1.31-2.57 2.81 2.81 0 0 0 -1.22-.49 2.5 2.5 0 0 0 -1 .08c-.57.17-.83.44-.77.52s.36 0 .86-.14a2.65 2.65 0 0 1 1.94.38 2.85 2.85 0 0 1 1.26 2.23 3.25 3.25 0 0 1 -.27 1.31z"/><path d="m61.1 75.91a2.59 2.59 0 0 1 -.38-1.91c.1-.51.24-.8.14-.87s-.35.2-.53.78a2.69 2.69 0 0 0 -.07 1 2.87 2.87 0 0 0 .48 1.21 3.17 3.17 0 0 0 2.58 1.32 3.82 3.82 0 0 0 1.44-.3 5.41 5.41 0 0 0 1.18-.7 5 5 0 0 0 1.67-2.24 6 6 0 0 0 .29-2.83 7 7 0 0 0 -1-2.91 9.64 9.64 0 0 1 .86 2.93 6.11 6.11 0 0 1 -.32 2.75 5 5 0 0 1 -2.76 2.86 3.27 3.27 0 0 1 -1.36.22 2.83 2.83 0 0 1 -2.22-1.31z"/><path d="m4.87 78a1.35 1.35 0 0 0 -2.19-1c-.56.65.17 1.12.6.86a.78.78 0 0 1 -1.45.26c-2-2.75 3.16-9 9.68-7.8 5.61 1.07 10.75 7.16 14.05 8.48s6.42 1.29 7.7.83a4.34 4.34 0 0 0 .61-.06c4.82-.83 5.65-4.27 9-5.65s4.56-.7 9.51 3.34a10.45 10.45 0 0 0 10.18 2c4.9-1 6.95-5.56 5.74-9a9.55 9.55 0 0 0 -1.91-3c.58.58 4.54 7-1.45 10.66-5.62 3.42-10-2.12-8.15-4.94a2 2 0 0 1 2.05-.65c.07-.44-1.06-1.43-2.16-.7-.51-.8-2 .66-1.86 2.23s2.43 5.65 6.59 5.54c-2.37.34-6.29.23-10.48-3.77-5.72-5.47-8.93-2.24-12.86.9-5.08 4.05-9.32 2.25-9.64-2.06.32-2.38 3-1.09 3.47-.38s.52.25.45-.84a2.35 2.35 0 0 0 -4.11-.9c-2.48 2.48.11 7 4.14 7.32h-.69c-5.53-.3-7.35-2.18-13.24-7.07-7.63-6.34-14-3.34-16.92 0s-1.25 6.34.47 7.07a2 2 0 0 0 2.87-1.67z"/><path d="m22.09 77.45a7.74 7.74 0 0 0 3 1.41c-1-.26-4.1-2.59-5.87-4.16-1.45-1.29-5.63-3.71-7.62-4a3.71 3.71 0 0 0 -3.39 1.3c-.81.73-1.55.69-1.37.86a4.33 4.33 0 0 0 4 .3c.17.09-.34.09-1 .86-.25.34-.08.26.31.21a7.85 7.85 0 0 0 3.44-.65c-.25.17-1 .76-.71.82 1.12.09 2.23-.85 4.12-.34s3.66 2.44 5.09 3.39z"/><path d="m19.73 73a17.31 17.31 0 0 0 3.86 3.21c.71.32-4-3.47-3.53-5.33s2.89-.2 1.6 1c.64.13.9-.39 1.16-.52 1.73-.83-.64-4.24-2.7-3.34-2.47 1.04-1.61 3.49-.39 4.98z"/><path d="m62.32 66.42c.24-.41 1.19-2.43 2.81-.89l.18.18a107.3 107.3 0 0 1 8.32 8.84s-1.54-1.08-2.62 0 0 2.46.69 1.62 3.3-.17 4.3.83.77 2.16-.08 2.24a1.29 1.29 0 0 0 1.69 0c1.23 1.23 2.24.54 2.24.54s.69-1-.54-2.24a1.29 1.29 0 0 0 0-1.69c-.12.87-1.31 1.15-2.31.15s-1.69-3.55-.84-4.24-.51-1.76-1.59-.76 0 2.61 0 2.61a107.36 107.36 0 0 1 -8.84-8.31c0-.06-.12-.12-.18-.18a0 0 0 0 0 0 0c-1.54-1.61.47-2.58.87-2.82.18-.11.09-.08 0-.14-.33-.43-1.57-.8-1.81.36-.44.26-.55 1-.22 1.82-.82-.33-1.56-.21-1.82.23-1.16.25-.78 1.49-.34 1.81.01.12-.02.22.09.04z"/></svg>
